<svg xmlns="http://www.w3.org/2000/svg" width="480" height="80"><defs><style/></defs><style>@keyframes animation-gauge{0%{stroke-dasharray:0 329}}@keyframes animation-rainbow{0%,to{color:#7f00ff;fill:#7f00ff}14%{color:#a933ff;fill:#a933ff}29%{color:#007fff;fill:#007fff}43%{color:#00ff7f;fill:#00ff7f}57%{color:#ff0;fill:#ff0}71%{color:#ff7f00;fill:#ff7f00}86%{color:red;fill:red}}svg{font-family:-apple-system,BlinkMacSystemFont,Segoe UI,Helvetica,Arial,sans-serif,Apple Color Emoji,Segoe UI Emoji;font-size:14px;color:#777}h2{margin:8px 0 2px;padding:0;color:#0366d6;font-weight:400;font-size:16px}h2 svg{fill:currentColor}section&gt;.field{margin-left:5px;margin-right:5px}.field{display:flex;align-items:center;margin-bottom:2px;white-space:nowrap}.field svg{margin:0 8px;fill:#959da5;flex-shrink:0}.field.error{color:#cb2431}.field.error svg{fill:#cb2431}.field.warning{color:#d79533}.field.warning svg{fill:#d79533}.row{display:flex;flex-wrap:wrap}.row section{flex:1 1 0}.categories{display:flex;align-items:center;justify-content:space-around;margin-top:4px}.activity{margin-bottom:12px}.activity .field{width:100%;overflow:hidden;text-overflow:ellipsis;max-width:450px;white-space:nowrap;margin-bottom:0}.activity .details{padding-left:38px;display:flex;flex-direction:column;font-size:13px;color:#666}:root{--color-calendar-graph-day-bg:#ebedf0;--color-calendar-graph-day-border:rgba(27,31,35,0.06);--color-calendar-graph-day-L1-bg:#9be9a8;--color-calendar-graph-day-L2-bg:#40c463;--color-calendar-graph-day-L3-bg:#30a14e;--color-calendar-graph-day-L4-bg:#216e39;--color-calendar-halloween-graph-day-L1-bg:#ffee4a;--color-calendar-halloween-graph-day-L2-bg:#ffc501;--color-calendar-halloween-graph-day-L3-bg:#fe9600;--color-calendar-halloween-graph-day-L4-bg:#03001c;--color-calendar-winter-graph-day-L1-bg:#0a3069;--color-calendar-winter-graph-day-L2-bg:#0969da;--color-calendar-winter-graph-day-L3-bg:#54aeff;--color-calendar-winter-graph-day-L4-bg:#b6e3ff;--color-calendar-graph-day-L4-border:rgba(27,31,35,0.06);--color-calendar-graph-day-L3-border:rgba(27,31,35,0.06);--color-calendar-graph-day-L2-border:rgba(27,31,35,0.06);--color-calendar-graph-day-L1-border:rgba(27,31,35,0.06)}#metrics-end{width:100%}</style><style/><foreignObject width="100%" height="100%" x="0" y="0"><div xmlns="http://www.w3.org/1999/xhtml" xmlns:xlink="http://www.w3.org/1999/xlink" class="items-wrapper"><section><div class="row"><div class="field warning"><svg xmlns="http://www.w3.org/2000/svg" width="16" height="16" viewBox="0 0 16 16"><path fill-rule="evenodd" d="M8.22 1.754a.25.25 0 00-.44 0L1.698 13.132a.25.25 0 00.22.368h12.164a.25.25 0 00.22-.368L8.22 1.754zm-1.763-.707c.659-1.234 2.427-1.234 3.086 0l6.082 11.378A1.75 1.75 0 0114.082 15H1.918a1.75 1.75 0 01-1.543-2.575L6.457 1.047zM9 11a1 1 0 11-2 0 1 1 0 012 0zm-.25-5.25a.75.75 0 00-1.5 0v2.5a.75.75 0 001.5 0v-2.5z"/></svg>&quot;activity.limit&quot; has no effect because &quot;activity: true&quot; is not set, &quot;activity.load&quot; has no effect because &quot;activity: true&quot; is not set, &quot;activity.days&quot; has no effect because &quot;activity: true&quot; is not set, &quot;activity.visibility&quot; has no effect because &quot;activity: true&quot; is not set, &quot;activity.timestamps&quot; has no effect because &quot;activity: true&quot; is not set, &quot;activity.skipped&quot; has no effect because &quot;activity: true&quot; is not set, &quot;activity.ignored&quot; has no effect because &quot;activity: true&quot; is not set, &quot;activity.filter&quot; has no effect because &quot;activity: true&quot; is not set, &quot;followup.sections&quot; has no effect because &quot;followup: true&quot; is not set, &quot;followup.indepth&quot; has no effect because &quot;followup: true&quot; is not set, &quot;followup.archived&quot; has no effect because &quot;followup: true&quot; is not set, &quot;isocalendar.duration&quot; has no effect because &quot;isocalendar: true&quot; is not set, &quot;languages.ignored&quot; has no effect because &quot;languages: true&quot; is not set, &quot;languages.skipped&quot; has no effect because &quot;languages: true&quot; is not set, &quot;languages.limit&quot; has no effect because &quot;languages: true&quot; is not set, &quot;languages.threshold&quot; has no effect because &quot;languages: true&quot; is not set, &quot;languages.other&quot; has no effect because &quot;languages: true&quot; is not set, &quot;languages.colors&quot; has no effect because &quot;languages: true&quot; is not set, &quot;languages.aliases&quot; has no effect because &quot;languages: true&quot; is not set, &quot;languages.sections&quot; has no effect because &quot;languages: true&quot; is not set, &quot;languages.details&quot; has no effect because &quot;languages: true&quot; is not set, &quot;languages.indepth&quot; has no effect because &quot;languages: true&quot; is not set, &quot;languages.indepth.custom&quot; has no effect because &quot;languages: true&quot; is not set, &quot;languages.analysis.timeout&quot; has no effect because &quot;languages: true&quot; is not set, &quot;languages.analysis.timeout.repositories&quot; has no effect because &quot;languages: true&quot; is not set, &quot;languages.categories&quot; has no effect because &quot;languages: true&quot; is not set, &quot;languages.recent.categories&quot; has no effect because &quot;languages: true&quot; is not set, &quot;languages.recent.load&quot; has no effect because &quot;languages: true&quot; is not set, &quot;languages.recent.days&quot; has no effect because &quot;languages: true&quot; is not set</div></div></section><section><h2 class="field"><svg xmlns="http://www.w3.org/2000/svg" width="16" height="16" viewBox="0 0 16 16"><path fill-rule="evenodd" d="M3.217 6.962A3.75 3.75 0 010 3.25v-.5C0 1.784.784 1 1.75 1h1.356c.228-.585.796-1 1.462-1h6.864a1.57 1.57 0 011.462 1h1.356c.966 0 1.75.784 1.75 1.75v.5a3.75 3.75 0 01-3.217 3.712 5.014 5.014 0 01-2.771 3.117l.144 1.446c.005.05.03.12.114.204.086.087.217.17.373.227.283.103.618.274.89.568.285.31.467.723.467 1.226v.75h1.25a.75.75 0 110 1.5H2.75a.75.75 0 010-1.5H4v-.75c0-.503.182-.916.468-1.226.27-.294.606-.465.889-.568a1.03 1.03 0 00.373-.227c.084-.085.109-.153.114-.204l.144-1.446a5.014 5.014 0 01-2.77-3.117zM3 2.5H1.75a.25.25 0 00-.25.25v.5c0 .98.626 1.813 1.5 2.122V2.5zm4.457 7.97l-.12 1.204c-.093.925-.858 1.47-1.467 1.691a.764.764 0 00-.3.176c-.037.04-.07.093-.07.21v.75h5v-.75c0-.117-.033-.17-.07-.21a.763.763 0 00-.3-.176c-.609-.221-1.374-.766-1.466-1.69l-.12-1.204a5.052 5.052 0 01-1.087 0zM13 5.373V2.5h1.25a.25.25 0 01.25.25v.5A2.25 2.25 0 0113 5.372zM4.5 1.568c0-.037.03-.068.068-.068h6.864c.037 0 .068.03.068.068V5.5a3.5 3.5 0 11-7 0V1.568z"/></svg>Achievements</h2><div class="row"><section class="achievements largeable-flex-wrap"><div class="field error"><svg xmlns="http://www.w3.org/2000/svg" width="16" height="16" viewBox="0 0 16 16"><path fill-rule="evenodd" d="M2.343 13.657A8 8 0 1113.657 2.343 8 8 0 012.343 13.657zM6.03 4.97a.75.75 0 00-1.06 1.06L6.94 8 4.97 9.97a.75.75 0 101.06 1.06L8 9.06l1.97 1.97a.75.75 0 101.06-1.06L9.06 8l1.97-1.97a.75.75 0 10-1.06-1.06L8 6.94 6.03 4.97z"/></svg>Unexpected error</div></section></div></section></div><div xmlns="http://www.w3.org/1999/xhtml" id="metrics-end"/></foreignObject></svg>